<?xml version="1.0" encoding="UTF-8" standalone="no"?>
<!-- Created with Inkscape (http://www.inkscape.org/) -->

<svg
   xmlns:dc="http://purl.org/dc/elements/1.1/"
   xmlns:cc="http://creativecommons.org/ns#"
   xmlns:rdf="http://www.w3.org/1999/02/22-rdf-syntax-ns#"
   xmlns:svg="http://www.w3.org/2000/svg"
   xmlns="http://www.w3.org/2000/svg"
   xmlns:sodipodi="http://sodipodi.sourceforge.net/DTD/sodipodi-0.dtd"
   xmlns:inkscape="http://www.inkscape.org/namespaces/inkscape"
   width="744.28571"
   height="1306.7468"
   id="svg2"
   version="1.1"
   inkscape:version="0.48.2 r9819"
   sodipodi:docname="Clayton.svg"
   inkscape:export-filename="C:\Users\sirchris\Desktop\Clayton.png"
   inkscape:export-xdpi="90.017433"
   inkscape:export-ydpi="90.017433">
  <defs
     id="defs4" />
  <sodipodi:namedview
     id="base"
     pagecolor="#ffffff"
     bordercolor="#666666"
     borderopacity="1.0"
     inkscape:pageopacity="0.0"
     inkscape:pageshadow="2"
     inkscape:zoom="0.33587572"
     inkscape:cx="18.651887"
     inkscape:cy="1064.181"
     inkscape:document-units="px"
     inkscape:current-layer="layer1"
     showgrid="false"
     inkscape:window-width="1680"
     inkscape:window-height="988"
     inkscape:window-x="1016"
     inkscape:window-y="-8"
     inkscape:window-maximized="1"
     fit-margin-top="0"
     fit-margin-left="0"
     fit-margin-right="0"
     fit-margin-bottom="0"
     inkscape:snap-bbox="true" />
  <metadata
     id="metadata7">
    <rdf:RDF>
      <cc:Work
         rdf:about="">
        <dc:format>image/svg+xml</dc:format>
        <dc:type
           rdf:resource="http://purl.org/dc/dcmitype/StillImage" />
        <dc:title></dc:title>
      </cc:Work>
    </rdf:RDF>
  </metadata>
  <g
     inkscape:label="Layer 1"
     inkscape:groupmode="layer"
     id="layer1"
     transform="translate(-25.714287,-132.15284)">
    <path
       sodipodi:type="arc"
       style="fill:#ff7f2a"
       id="path2985"
       sodipodi:cx="401.03055"
       sodipodi:cy="425.05746"
       sodipodi:rx="265.6701"
       sodipodi:ry="265.6701"
       d="m 666.70065,425.05746 c 0,146.72555 -118.94455,265.67011 -265.6701,265.67011 -146.72555,0 -265.67011,-118.94456 -265.67011,-265.67011 0,-146.72554 118.94456,-265.6701 265.67011,-265.6701 146.72555,0 265.6701,118.94456 265.6701,265.6701 z" />
    <path
       sodipodi:type="arc"
       style="fill:#ffffff"
       id="path2987"
       sodipodi:cx="263.64981"
       sodipodi:cy="417.98639"
       sodipodi:rx="87.88327"
       sodipodi:ry="90.913727"
       d="m 351.53308,417.98639 c 0,50.21026 -39.34668,90.91373 -87.88327,90.91373 -48.53659,0 -87.88327,-40.70347 -87.88327,-90.91373 0,-50.21027 39.34668,-90.91373 87.88327,-90.91373 48.53659,0 87.88327,40.70346 87.88327,90.91373 z"
       transform="translate(20.203051,-42.426407)" />
    <path
       transform="translate(255.05885,-39.268517)"
       sodipodi:type="arc"
       style="fill:#ffffff"
       id="path2987-1"
       sodipodi:cx="263.64981"
       sodipodi:cy="417.98639"
       sodipodi:rx="87.88327"
       sodipodi:ry="90.913727"
       d="m 351.53308,417.98639 c 0,50.21026 -39.34668,90.91373 -87.88327,90.91373 -48.53659,0 -87.88327,-40.70347 -87.88327,-90.91373 0,-50.21027 39.34668,-90.91373 87.88327,-90.91373 48.53659,0 87.88327,40.70346 87.88327,90.91373 z" />
    <path
       sodipodi:type="arc"
       style="fill:#806600"
       id="path3009"
       sodipodi:cx="276.7818"
       sodipodi:cy="389.70212"
       sodipodi:rx="46.467018"
       sodipodi:ry="44.446712"
       d="m 323.24882,389.70212 c 0,24.54724 -20.804,44.44671 -46.46702,44.44671 -25.66303,0 -46.46702,-19.89947 -46.46702,-44.44671 0,-24.54724 20.80399,-44.44671 46.46702,-44.44671 25.66302,0 46.46702,19.89947 46.46702,44.44671 z"
       transform="translate(3.6090225,9.303764)" />
    <path
       transform="translate(241.49528,9.3037639)"
       sodipodi:type="arc"
       style="fill:#806600"
       id="path3009-7"
       sodipodi:cx="276.7818"
       sodipodi:cy="389.70212"
       sodipodi:rx="46.467018"
       sodipodi:ry="44.446712"
       d="m 323.24882,389.70212 c 0,24.54724 -20.804,44.44671 -46.46702,44.44671 -25.66303,0 -46.46702,-19.89947 -46.46702,-44.44671 0,-24.54724 20.80399,-44.44671 46.46702,-44.44671 25.66302,0 46.46702,19.89947 46.46702,44.44671 z" />
    <path
       sodipodi:type="arc"
       style="fill:#2b1100"
       id="path3029"
       sodipodi:cx="275.77164"
       sodipodi:cy="406.87469"
       sodipodi:rx="19.192898"
       sodipodi:ry="15.152288"
       d="m 294.96453,406.87469 c 0,8.36838 -8.59295,15.15229 -19.19289,15.15229 -10.59995,0 -19.1929,-6.78391 -19.1929,-15.15229 0,-8.36837 8.59295,-15.15228 19.1929,-15.15228 10.59994,0 19.19289,6.78391 19.19289,15.15228 z"
       transform="matrix(0.81391926,0,0,0.81143819,56.992481,79.20223)" />
    <path
       sodipodi:type="arc"
       style="fill:#2b1100"
       id="path3031"
       sodipodi:cx="526.28949"
       sodipodi:cy="414.95593"
       sodipodi:rx="17.172594"
       sodipodi:ry="13.131983"
       d="m 543.46208,414.95593 c 0,7.2526 -7.68843,13.13199 -17.17259,13.13199 -9.48416,0 -17.17259,-5.87939 -17.17259,-13.13199 0,-7.25259 7.68843,-13.13198 17.17259,-13.13198 9.48416,0 17.17259,5.87939 17.17259,13.13198 z"
       transform="translate(-5.8646616,-1.2030076)" />
    <path
       style="fill:#552200"
       d="m 573.68169,554.10212 c 0,35.14719 -82.19676,96.21938 -178.71205,96.21938 -96.5153,0 -166.67518,-64.85792 -166.67518,-100.00511 0,-35.14718 82.28171,33.33503 178.79701,33.33503 96.51529,0 166.59022,-64.69648 166.59022,-29.5493 z"
       id="path3033"
       inkscape:connector-curvature="0"
       sodipodi:nodetypes="sssss" />
    <path
       style="fill:#0000ff;stroke:#000000;stroke-width:1px;stroke-linecap:butt;stroke-linejoin:miter;stroke-opacity:1"
       d="m 204.05081,191.71221 c 4.9303,2.73929 8.31277,6.29246 12.12183,10.10153 0.67344,0.67343 1.59439,1.16847 2.02031,2.0203 0.30117,0.60234 -0.47619,1.54412 0,2.02031 0.47619,0.47619 1.34687,0 2.0203,0 0.67344,0.67344 1.49202,1.22788 2.02031,2.02031 4.45106,1.01741 1.06792,4.15615 2.0203,6.06091 2.17177,4.34353 5.58273,7.95767 8.08123,12.12183 0.20992,0.34988 3.96812,8.00874 4.04061,8.08122 0.47619,0.47619 1.54411,-0.47619 2.0203,0 0.47619,0.47619 -0.47619,1.54412 0,2.02031 0.47619,0.47619 1.54412,0.47619 2.02031,0 0.47619,-0.47619 -0.30117,-1.41797 0,-2.02031 0.42591,-0.85183 1.34687,-1.34687 2.0203,-2.0203 1.34687,-1.34687 2.69374,-2.69374 4.04061,-4.04061 0,-0.67344 -0.30117,-1.41797 0,-2.02031 0.42592,-0.85183 1.59439,-1.16847 2.02031,-2.0203 0.80812,-1.61625 -0.80813,-4.44468 0,-6.06092 2.49649,-4.99299 2.0203,0.69737 2.0203,-4.04061"
       id="path3036"
       inkscape:connector-curvature="0" />
    <path
       style="fill:#0000ff"
       id="path3038"
       d="m 235.16452,214.27183 c 0.23782,-8.55182 -13.12521,-7.63564 0.0974,-25.66319 -0.01,-1.12498 -0.009,-2.25011 -0.0298,-3.37492 -0.0142,-0.74948 -0.0437,-1.49865 -0.0766,-2.24755 -0.0177,-0.40217 -0.51714,-1.02232 -0.1548,-1.19772 27.52594,-13.32461 25.23068,-22.84731 27.31762,-11.27302 0.45061,1.31552 0.10528,4.13436 1.47944,5.0843 0.53819,0.37204 2.02581,-1.78201 1.59132,-1.55563 -8.02203,4.17966 -15.80392,8.8049 -23.70588,13.20735 6.8314,-4.85146 12.87591,-10.69451 19.88019,-15.30085 24.46072,-13.43264 29.83287,-25.06424 38.7936,-2.60837 1.26675,1.83447 1.43916,5.72539 3.59307,7.02272 0.89232,0.53745 1.84945,-1.49672 1.9505,-1.59343 0.5125,-0.49046 1.15436,-0.8248 1.73154,-1.23719 9.80878,-4.75778 7.98196,-3.93462 -20.84079,12.08053 -0.89106,0.49512 1.70061,-1.12648 2.51693,-1.73701 1.02403,-0.76588 2.00991,-1.5817 3.00093,-2.38984 8.63984,-7.04546 -2.23698,1.66445 6.83483,-5.56534 11.60969,-8.30149 24.56609,-14.91806 36.97072,-21.71367 0.83029,-0.45485 5.2245,-2.15735 6.48252,-2.05698 1.11099,0.0887 2.08824,0.77968 3.13237,1.16952 6.21907,4.42884 7.95744,11.94491 10.92814,18.54018 0.41607,0.57341 25.63574,-0.6095 26.24823,-0.25345 0.46643,0.27115 -22.5775,1.00742 -21.89362,0.63002 8.53016,-4.7073 22.47132,-6.98199 -14.80664,14.3336 13.80032,-7.70429 29.12428,-23.6107 43.66015,-30.03073 2.31613,-1.02296 6.2396,-2.85143 8.98235,-2.94234 1.15753,-0.0384 2.27137,0.4542 3.40705,0.6813 0.8955,0.774 1.95454,1.39183 2.6865,2.322 3.78639,4.81176 3.45786,12.01428 2.80106,17.71592 -1.39731,11.45732 8.60417,0.60627 -26.82605,13.06875 -0.76714,0.26984 0.74011,-1.45081 1.17399,-2.1386 0.52632,-0.83434 2.60962,-3.61958 3.19907,-4.41628 7.59215,-10.06807 13.75186,-11.3232 30.30457,-17.71243 1.9876,-0.76721 2.86777,11.11133 2.93489,11.8209 0.17405,1.80475 -0.0549,9.28686 2.60638,10.35184 1.45011,0.5803 7.74967,-3.80972 8.55112,-4.32624 -6.75438,3.82688 -13.44886,7.76149 -20.26316,11.48064 -1.91393,1.0446 3.69905,-2.30967 5.55547,-3.45338 1.86776,-1.1507 3.72169,-2.32501 5.61698,-3.42979 12.3352,-7.19029 25.31499,-16.05727 39.01696,-21.51355 1.15058,-0.0998 2.36716,-0.69613 3.45173,-0.29928 7.05828,2.58266 6.98283,17.99938 7.32365,23.97857 1.08914,0.45734 -0.4053,3.95728 0.98895,4.82277 0.27935,0.1734 0.51017,-0.41774 0.73587,-0.65683 0.73659,-0.78026 3.10473,-2.88315 2.14776,-2.39779 -11.67712,5.92245 -31.20063,18.27282 -17.41675,9.61701 9.93557,-5.72263 19.81679,-11.54069 29.80672,-17.16789 1.44329,-0.81298 2.87983,-1.72587 4.48204,-2.14651 4.12223,-1.08226 8.56288,0.43102 11.14538,3.78664 0.87466,1.1365 1.33562,2.53825 2.00344,3.80737 1.0938,2.19848 0.82813,7.01356 3.84618,7.95068 2.3968,0.74422 7.98465,-0.62269 10.30947,-0.93065 8.92696,-0.85558 18.54628,-3.1681 27.40221,-0.46017 1.60151,0.48971 3.0625,1.35636 4.59375,2.03454 7.93744,5.37695 9.75553,14.12609 10.76716,23.04009 0.0607,0.40223 0.30825,2.90596 0.77786,3.50106 0.10286,0.13035 4.69244,-0.38452 5.09443,-0.423 5.44706,-0.7077 8.00856,1.42297 10.03672,6.28676 0.98839,2.72585 1.09766,5.62227 1.54929,8.44922 0.36154,2.26298 0.80144,2.88933 0.68607,-0.043 -34.98976,21.67094 -26.67152,18.73263 -20.20762,6.30915 2.41915,-4.64956 4.44978,-9.48344 6.83128,-14.15449 6.91599,-12.25482 11.88395,-13.56758 30.78982,-20.774 3.37311,-1.28574 0.66902,7.5036 -0.56123,11.61348 -4.58467,14.34105 -4.7118,9.63345 -29.43212,17.90783 -0.80901,0.2708 0.55603,-1.61394 0.87549,-2.405 0.38122,-0.94405 0.81699,-1.86515 1.22549,-2.79772 3.71373,-10.75918 31.92734,-34.67427 33.35882,-17.54511 0.11864,1.41969 -0.37141,2.82496 -0.55711,4.23745 -2.63994,10.68538 -18.78266,47.34408 -34.26287,29.08505 -2.22954,-5.56763 0.10827,-11.46998 -0.79079,-17.19915 -3.35666,-3.26798 -9.13993,-2.21827 -13.44592,-2.6272 -1.51076,-0.14347 -3.00244,-0.44417 -4.50366,-0.66625 -3.2,-1.05673 -6.94038,-2.08011 -9.82068,-3.91653 -7.91028,-5.04345 -13.76516,-12.84851 -19.19868,-20.2961 -2.76975,-2.79381 -8.0102,11.57933 -12.14696,-7.07808 -0.0255,0.004 -2.89482,-1.36323 -2.98011,-1.32147 -0.57689,-0.0655 -1.23957,0.11322 -1.73066,-0.1965 -4.43747,-2.7986 -0.30562,-10.36914 0.84054,-13.70668 0.43824,-1.2306 0.87676,-2.4611 1.31471,-3.6918 0.098,-0.27547 2.73865,-7.74184 2.83742,-7.78394 28.39337,-12.1051 30.25528,-18.32628 24.8537,-6.51709 -7.24602,14.24178 -13.1251,14.77721 -32.42234,24.06204 -0.70709,0.34021 -1.31346,-0.91617 -1.76437,-1.55835 -0.51252,-0.72992 -0.70402,-1.63896 -1.05603,-2.45844 -0.61748,-2.51067 -0.18415,-5.08452 -0.30884,-7.62065 -0.009,-0.18429 -0.18938,-0.70888 -0.17593,-0.52486 0.0591,0.80748 -0.42401,2.74221 0.31367,2.40855 8.27907,-3.74468 15.85944,-8.8736 23.78917,-13.3104 -2.58436,2.11322 -5.08119,4.32881 -7.55454,6.56976 -0.11373,0.10304 -2.88792,2.69089 -3.37354,2.95559 -9.03325,4.92376 -18.17909,9.63808 -27.26863,14.45712 -3.87553,-4.05039 -2.40642,-8.95746 -1.53575,-13.87092 0.0157,0.22728 -0.16062,0.77556 0.047,0.68184 8.32921,-3.75905 16.30787,-8.28193 24.71719,-11.85817 1.40787,-0.59873 -2.40392,1.89351 -3.58175,2.86987 -4.9051,4.06607 -9.78064,7.9449 -14.97862,11.63806 -12.27707,7.80132 -13.4374,8.67048 -33.80182,19.05026 -2.23284,1.13808 -4.3502,0.36672 -5.97195,-1.29654 -2.00835,-2.05978 -2.32452,-4.39318 -3.10603,-7.02329 -1.12829,-3.31204 -0.41551,-9.14201 -2.05545,-12.23414 -0.22558,-0.42532 -0.8868,-0.77893 -1.32395,-0.57724 -0.89344,0.41218 -2.9254,2.56581 -2.04297,2.13057 7.18114,-3.54193 14.05265,-7.67976 21.07898,-11.51965 -8.15956,5.66497 -15.81693,12.00637 -23.83038,17.86757 -1.52622,1.11631 -2.99807,2.32323 -4.63263,3.27385 -9.6165,5.59272 -19.39876,10.89541 -29.09814,16.34312 -1.11202,-0.12397 -2.29504,0.0383 -3.33605,-0.37192 -6.40226,-2.52261 -6.02531,-13.28581 -6.6009,-18.68776 -0.12162,-1.01692 -1.25267,-10.55735 -1.40543,-11.49369 -0.31267,-1.91652 -1.07849,-6.23284 -2.17356,-6.41014 -0.68531,-0.11096 -1.84391,1.99257 -1.2201,1.6879 7.85885,-3.83823 15.41962,-8.25889 23.12942,-12.38833 -9.38704,8.55926 -32.54404,34.44711 -44.46265,27.87606 -27.7042,-15.27407 2.17096,-11.63057 1.54592,-4.75987 -2.16716,-5.11923 -0.78187,-12.33001 -1.70589,-17.71058 -0.42675,-2.48493 -0.18465,-2.71367 -0.72847,-1.70872 43.5577,-21.65107 29.51324,-20.06973 24.3764,-10.72394 -1.69136,3.07718 -2.81291,6.40381 -4.6522,9.40624 -34.58831,17.84284 -25.09256,19.2077 -33.21038,-2.32635 -0.33739,-0.29201 -0.69797,-1.19284 -1.01217,-0.87601 -0.63186,0.63716 -1.53361,2.92608 -0.69757,2.60009 7.40139,-2.88596 13.66908,-8.51889 21.32404,-10.64278 2.56534,-0.71176 -3.42751,4.07498 -5.10453,6.14263 -3.33127,4.10723 6.96754,11.56627 3.64406,15.6798 -10.18673,11.85794 -32.40949,12.60019 -49.47552,19.99589 -2.62535,1.13771 -6.6361,-8.88881 -7.22913,-10.26881 -1.09447,-1.38135 -2.42739,-9.94691 -4.08714,-10.68903 -0.46548,-0.20812 -1.39931,1.43109 -0.94233,1.20493 8.04155,-3.97997 15.61818,-8.89977 23.82377,-12.52951 1.37488,-0.60818 -2.02461,2.22296 -3.03692,3.33444 -3.3554,4.43655 -6.09877,9.29564 -9.51875,13.68578 -0.78886,1.01265 -1.43086,2.22923 -2.51539,2.91593 -8.98735,5.6906 -17.95991,11.50062 -27.54357,16.11677 -0.91592,0.44117 -1.73145,-1.06595 -2.59717,-1.59892 -5.05087,-5.39785 -6.57524,-12.83897 -10.26093,-19.05312 -0.40754,-0.27173 -0.7982,-1.05971 -1.22262,-0.81519 -0.58951,0.33962 -1.30657,2.21541 -0.694,1.9194 8.09559,-3.91213 15.55316,-9.05802 23.63225,-13.00411 1.12778,-0.55085 -1.75807,1.79304 -2.59469,2.72867 -1.73222,1.93724 -3.35661,3.96825 -5.03721,5.95043 -9.18519,9.21624 -5.58662,5.96233 -29.48296,18.26045 -0.69191,0.35609 -1.51391,-0.47979 -2.13037,-0.95468 -2.39928,-1.84829 -3.31867,-5.07572 -4.34393,-7.75144 -0.2979,-0.91004 -2.24388,-7.06757 -3.86583,-6.99781 -0.62745,0.027 -1.96922,1.53683 -1.41157,1.24793 22.42573,-11.61829 29.87179,-18.0401 18.52088,-8.89431 -5.09607,4.5136 -9.77296,9.51094 -15.03148,13.84456 -9.25914,7.63058 -19.16826,25.64272 -25.18084,28.6469 -1.07682,0.53803 -10.82855,-8.94747 -12.0323,-8.94752 -7.8548,-2.88591 -1.73565,-5.54814 -5.52283,-11.7196 -0.96098,11.45576 -6.52847,-7.11671 18.03483,-16.88258 1.48185,-0.58916 -1.55649,2.78823 -2.21145,4.24218 -2.43826,5.41273 -4.24614,11.15768 -6.15643,16.76963 -2.0641,6.32465 6.0034,13.01809 5.50863,19.73366 -0.0187,4.50667 -8.89571,6.76479 -6.02452,9.92742 4.76074,3.93072 9.51879,8.12009 15.07382,10.88938 0.56146,-0.0142 1.15609,0.14811 1.68437,-0.0426 0.44582,-0.1609 1.47638,-1.17403 1.05985,-0.94788 -8.301,4.50696 -16.33667,9.50456 -24.74517,13.80763 -0.57488,0.29419 0.76877,-1.0557 1.00296,-1.65751 0.72432,-1.86126 1.20514,-5.11167 1.54215,-6.95482 1.11469,-6.06123 0.8629,-12.26095 1.58587,-18.35807 0.0755,-0.63641 -0.20291,-1.58834 0.36364,-1.88791 8.95386,-4.73441 18.35304,-8.57386 27.52956,-12.86079 0.39933,1.30985 0.89276,2.59463 1.198,3.92955 0.15095,0.66016 1.76931,10.54695 1.83175,10.90503 0.96844,5.55333 2.00888,11.04005 3.4379,16.49198 4.44471,12.0241 11.39851,2.51343 -23.47573,15.78242 -1.19185,0.45348 1.53791,-2.04745 2.13644,-3.17346 1.66621,-3.13461 4.58287,-10.58289 5.76523,-13.48521 6.1033,-13.91964 9.10459,-29.42153 16.95541,-42.54521 9.14081,-4.86503 17.66173,-11.13799 27.42244,-14.5951 1.45205,-0.51429 1.44851,2.7356 1.93102,4.19851 1.94123,5.88559 2.31694,13.17282 3.00639,19.336 1.77619,14.08337 3.19047,5.38665 -25.9112,17.1612 -0.72496,0.29332 1.04566,-1.19128 1.37644,-1.89993 0.74756,-1.60155 2.67125,-8.07974 3.08933,-9.43603 1.73569,-5.23604 3.13303,-10.57304 4.86162,-15.81125 0.4077,-1.23546 0.84882,-2.45971 1.28783,-3.6844 0.21442,-0.59814 0.0869,-1.53665 0.67234,-1.78373 8.73261,-3.68563 17.80281,-6.51378 26.70421,-9.77068 -0.49427,3.77324 -1.70224,7.42344 -2.20685,11.1933 -0.0408,0.30444 0.10181,1.21935 0.0289,0.92099 -0.17314,-0.70807 0.33253,-2.46062 -0.33217,-2.16143 -8.49191,3.82231 -16.3588,8.90391 -24.5382,13.35586 6.61969,-6.16417 11.59945,-13.90904 18.40335,-19.87354 9.35875,-4.86768 18.16196,-10.99927 28.07626,-14.60304 1.54053,-0.55997 2.55659,4.5915 2.56115,8.29991 0.007,5.36828 5.66703,12.83676 4.8504,18.12124 -0.17584,-0.56571 -8.31494,5.47097 -6.0564,4.804 0.64575,-0.19069 -4.49504,-8.63223 -3.94166,-9.01581 1.01626,-0.70444 9.72718,5.15607 8.64552,5.75525 -7.01906,3.88823 -13.95827,7.9189 -20.93741,11.87835 15.44132,-10.58336 31.60124,-19.82823 47.92533,-29.03656 4.66856,-2.63351 4.40035,-2.2467 9.0414,-3.16643 5.68568,-0.0666 5.635,8.442 7.50809,9.52629 0.35323,0.20448 0.81199,-0.0837 1.21798,-0.12561 13.12076,-3.7345 26.24483,-7.50357 39.28952,-11.51091 6.60575,-1.79992 18.94404,-6.29006 24.85786,-0.16739 0.5294,0.5481 0.82813,1.27942 1.2422,1.91913 -0.25355,4.39308 1.80452,-0.22127 1.40276,-0.0188 -8.20334,4.13499 -16.00228,9.02986 -24.08686,13.39249 -1.05191,0.56763 1.99993,-1.31056 2.97595,-2.00056 1.31218,-0.92764 2.59148,-1.90093 3.88722,-2.85139 15.3334,-11.4875 31.49441,-21.96699 49.30695,-29.3785 1.07611,-0.44776 1.84037,1.43075 2.76055,2.14612 0.23934,1.56895 0.78323,3.12109 0.71803,4.70685 -0.26854,6.53088 -5.32102,16.15403 -8.94163,21.64034 -7.59727,9.2288 -4.46344,5.82308 -28.38894,16.41267 -0.82669,0.3659 -1.27574,-1.29815 -1.76916,-2.05566 -1.6444,-2.52452 -1.99676,-5.67006 -2.48703,-8.55393 -1.96209,-16.3504 -3.21275,-9.78254 24.38946,-20.67119 1.13122,-0.44625 -1.36899,2.01025 -2.05348,3.01537 -0.51469,0.85688 -6.34946,11.87849 -4.3316,12.24196 0.47132,0.0849 0.65453,-0.716 1.06204,-0.96758 0.88592,-0.54693 1.85839,-0.93934 2.78759,-1.40901 1.27044,-0.79099 5.11817,-3.10224 3.81133,-2.37297 -6.62149,3.69504 -13.10042,7.64427 -19.75885,11.27231 -1.9949,1.08698 3.79654,-2.5003 5.75932,-3.64427 10.1103,-5.89264 20.09069,-12.02984 30.45523,-17.46286 1.48023,-0.77592 3.23951,-1.27191 4.89844,-1.06927 1.5196,0.18562 2.70113,1.4417 4.05169,2.16255 0.88164,1.73933 2.12973,3.33725 2.64492,5.21797 1.32988,4.85476 0.86323,12.33136 0.6216,17.0832 -0.42924,8.44157 -1.26446,16.72094 -1.21517,25.18054 0.0322,0.19068 0.51051,6.53937 2.23077,7.14353 0.88223,0.30984 4.65741,-4.1781 5.52934,-4.51585 6.23689,-2.41592 9.19019,-2.01868 15.16065,-5.02196 7.5711,-3.22624 22.93978,-13.70919 31.33306,-9.28702 1.2769,0.67277 2.13919,1.9381 3.20879,2.90715 2.27096,3.69125 2.67186,7.76844 3.05892,11.9586 0.0905,0.97936 0.12296,3.722 0.74222,3.96117 0.30464,0.11766 0.39347,-0.52131 0.5902,-0.78196 8.32513,-5.1931 18.16032,-7.7988 27.5785,-10.27793 5.98248,-1.09825 13.02101,-3.69397 19.14783,-1.61733 2.36863,0.80282 2.96295,1.81067 4.58587,3.5057 1.62741,1.70863 1.89126,5.32863 4.14389,6.51571 0.82275,0.43357 2.17857,-0.0482 2.90614,-0.20117 4.0621,-0.16399 8.55995,-2.29252 12.64253,-1.37369 0.78268,0.17616 1.46656,0.65089 2.19985,0.97633 3.77053,3.31458 4.25067,8.30822 5.07096,12.96366 -2.16755,-10.19544 10.60064,17.57598 -15.87644,30.10317 -0.48838,0.23107 -11.65445,-15.28616 -11.32962,-15.71789 0.10621,-0.14116 -5.06481,-2.6262 -4.83833,-2.74879 9.01734,-4.88093 26.91965,-12.40783 36.03737,-17.09859 2.74705,3.16265 2.77607,7.56106 3.7918,11.35983 -29.12212,13.10408 -84.43323,-21.94127 -21.80566,3.20038 4.29288,1.72336 -4.22961,-3.75337 -4.64394,-8.36176 -0.1813,-0.14363 -0.39795,-0.61031 -0.54391,-0.43088 -0.61286,0.75344 -11.47066,6.33118 -10.58956,5.92259 7.55118,-3.50172 23.74767,-11.64667 31.14828,-15.45631 1.89488,-0.97544 -3.51776,2.40747 -5.25253,3.64546 -17.13377,12.22723 5.97045,-4.0001 -10.8718,7.78706 -12.16215,7.82628 -16.38434,10.71511 -34.72065,19.37142 -1.21304,0.57266 -2.73701,0.16425 -4.01735,-0.23594 -4.45794,-1.39337 -6.12238,-6.01412 -7.74093,-9.80533 -3.17155,-10.13915 -2.84996,-20.84561 -3.93945,-31.29784 -0.2004,-0.60949 -0.0448,-1.50895 -0.60121,-1.82848 -0.37205,-0.21366 -0.98518,1.32495 -0.59823,1.13963 8.05736,-3.85877 15.71497,-8.52903 23.82977,-12.2655 1.18887,-0.54742 -1.97165,1.72356 -2.91204,2.6339 -1.99469,1.93097 -3.86792,3.98358 -5.80405,5.97326 -8.73514,7.44835 -23.49383,24.80488 -32.47959,15.81268 -2.74437,-2.74634 -3.25348,-6.89527 -3.97302,-10.47552 -1.45738,-6.29515 -1.49457,-16.34095 -6.00728,-21.36773 -0.66473,-0.74045 -1.58691,-1.20094 -2.38036,-1.80142 -0.99782,-0.24523 -1.96605,-0.72148 -2.99347,-0.7357 -4.49197,-0.0621 -8.85885,2.68853 -12.97129,4.06834 -4.46702,1.49878 -3.81801,1.19524 -8.15351,1.46114 -7.24038,-2.24665 -9.68899,-9.28986 -13.00693,-15.38222 -1.34417,-0.53327 -6.12417,-3.97531 -15.52996,-3.63699 -4.15272,2.04091 -11.18752,8.11395 -16.15918,6.28947 -0.71164,-0.26116 -1.27504,-0.82027 -1.91255,-1.23041 -3.38175,-3.97241 -5.54302,-8.49939 -9.90932,-11.57239 -2.49119,-0.53573 -5.16077,-0.78451 -7.70372,-0.42711 -2.74113,0.38524 -7.7073,5.24395 -6.44814,1.05649 -0.61246,-0.41207 -5.81583,2.60068 -6.31105,2.05327 -3.14218,-3.47333 1.45267,-13.97304 0.31519,-18.41777 -0.32559,-0.24293 -0.59175,-0.85837 -0.97678,-0.72881 -0.61107,0.20564 -1.82349,1.76871 -1.24823,1.47756 7.66567,-3.87977 14.95365,-8.48176 22.64635,-12.30764 1.5058,-0.7489 -2.72055,1.9808 -4.02253,3.04529 -1.17862,0.96363 -6.59849,5.83726 -7.813,6.92446 -8.5214,6.73945 -9.15343,-1.35185 -33.47466,19.17669 -0.3231,0.14921 -3.40883,-1.73773 -3.71331,-1.91631 l 25.08043,-16.53215 0,0 c 0.45549,0.16824 0.88792,0.42238 1.36645,0.50471 0.41598,0.0716 1.62387,-0.27447 1.26521,-0.0519 -43.83583,27.19929 -26.6797,16.45603 -17.85551,9.95176 10.16416,-8.9652 33.44204,-32.55337 43.44291,-25.81428 0.71147,0.47943 1.02119,1.37891 1.53179,2.06836 0.45857,1.79499 1.92569,12.06551 3.0017,12.74665 0.28136,0.1781 0.66297,0.0633 0.99446,0.0949 5.1862,-0.91631 10.32155,-1.54547 15.16395,1.14795 2.45746,1.97867 4.39615,3.94905 6.21919,6.53937 0.65886,0.93616 1.63308,2.69439 2.46665,3.59238 0.29909,0.3222 0.69285,0.54132 1.03927,0.81198 5.0896,0.86486 11.63305,-5.25254 16.34026,-6.81128 1.34947,-0.42634 2.65664,-1.02249 4.04841,-1.27903 6.56333,-1.20976 10.97233,3.12526 13.92852,8.44253 1.98168,3.59971 4.55002,10.56981 8.76654,12.07008 0.7434,0.26451 1.55966,0.24071 2.33949,0.36106 1.10732,-0.18695 2.2324,-0.28882 3.32194,-0.56084 6.0682,-1.51505 12.10104,-5.35523 18.59592,-3.86617 1.28194,0.2939 2.39486,1.08794 3.59229,1.63191 0.93314,0.87524 2.00147,1.62568 2.79944,2.62571 4.90127,6.1424 4.67252,15.0452 6.48515,22.31134 0.41999,2.11105 0.71514,4.53093 1.70849,6.51114 0.24393,0.48628 0.55815,1.00291 1.03779,1.25966 0.35504,0.19005 1.54821,-0.27162 1.20671,-0.0582 -35.85405,22.40894 -29.97538,18.44231 -21.06773,12.30148 14.04194,-13.8743 8.08596,-11.43274 36.97629,-24.8993 0.84438,-0.39359 1.68658,0.93832 2.21302,1.70693 0.47823,0.69822 0.42605,1.6381 0.63908,2.45714 0.77978,10.19829 0.37226,20.61982 3.42126,30.50984 1.16727,2.68264 2.31092,6.51331 5.92575,6.75668 1.09604,0.0738 4.16472,-1.09186 3.26257,-0.46507 -5.05446,3.51171 -29.72101,15.34801 -13.40837,5.51322 8.22197,-5.56048 0.40618,0.225 8.47458,-5.75075 1.64559,-1.21879 3.20746,-0.45974 4.95816,-1.52205 9.65637,-5.8594 19.14556,-12.05623 29.24,-17.12382 1.11266,-0.55857 2.58451,0.0162 3.68751,0.59363 0.65514,0.34296 0.74178,1.27949 1.11266,1.91923 0.40539,4.72048 0.24685,9.45817 0.27527,14.19457 0.006,1.06289 0.87783,2.55848 0.0219,3.18864 -8.40747,6.18964 -24.48832,14.24111 -33.37721,19.71693 1.19499,-5.28048 -1.25944,-6.26272 -3.04476,-8.64567 8.41526,-4.80673 24.49687,-13.10568 32.87734,-17.9728 0.39749,-0.23086 -0.91891,0.22408 -1.28372,0.50373 -0.87163,0.66816 -0.83803,2.22035 -1.7917,2.76504 -8.96732,5.12163 -18.01377,10.1388 -27.34945,14.55345 -0.44474,0.21031 5.92177,-1.62124 5.65897,-2.03713 -0.27141,-3.37865 -6.70526,-7.14584 -9.66761,-9.2986 -4.81363,-0.66406 -9.55161,1.23526 -14.38411,1.03522 -5.4742,-1.22651 -5.77498,-3.68488 -8.23636,-8.16265 -5.64055,-5.03726 -15.08432,-0.83247 -21.4269,0.2738 -6.22583,1.77326 -12.2216,3.75308 -18.21501,6.20643 -0.68934,0.28217 -6.97042,3.0249 -8.32329,3.28482 -0.88002,0.16908 -1.79139,-0.0551 -2.68709,-0.0826 -0.65237,-0.51895 -1.45469,-0.89165 -1.95712,-1.55683 -2.30967,-3.05789 0.32112,-11.55747 -2.79538,-14.77539 -0.76474,-0.56199 -1.39631,-1.37868 -2.29421,-1.68595 -2.81429,-0.9631 -6.10433,-0.025 -8.72495,0.8301 -7.32494,2.39017 -14.04604,6.34935 -20.98379,9.60968 -5.06444,2.51484 -18.26538,10.85499 -23.85637,6.20589 -1.99372,-1.65784 -2.14762,-6.87875 -2.39925,-8.70771 0.11716,-10.48754 -0.11434,-4.4348 0.76559,-15.90234 0.61207,-7.97679 2.08504,-17.03499 0.16754,-24.9715 -0.29286,-1.21211 -1.12394,-2.22636 -1.68591,-3.33954 -0.92367,-0.22202 -1.8271,-0.77324 -2.77101,-0.66606 -1.50796,0.17123 -5.57697,2.3042 -4.30913,1.47002 6.34811,-4.17675 13.02309,-7.83851 19.64735,-11.56182 1.96608,-1.10509 -3.72339,2.552 -5.66359,3.70192 -29.46481,17.46335 -20.22365,13.10894 -35.01124,19.79057 -1.27101,0.13213 -2.56252,0.65933 -3.81303,0.39639 -7.72385,-1.62404 -0.74034,-12.78376 0.72782,-16.32924 6.28181,-12.39838 2.00679,-5.48385 29.51539,-18.58964 0.56104,-0.2673 0.83517,0.97266 1.00456,1.57059 0.71407,2.52059 -0.25019,6.08776 0.65444,8.63692 0.32216,1.9804 0.46683,3.45951 1.09869,5.33624 0.15915,0.47273 0.32462,0.96426 0.6342,1.35538 0.0744,0.0941 0.43883,-0.19114 0.33544,-0.13032 -26.2377,15.43417 -32.72926,19.83911 -23.14076,13.40622 5.37099,-6.32995 8.37984,-13.92181 10.45639,-21.89606 -9.61799,-2.03285 -1.21837,0.0229 20.92205,-13.63103 1.52969,-0.94336 -3.16401,1.70927 -4.69597,2.64893 -5.4481,3.34171 -10.55901,7.20216 -15.67811,11.01562 -0.92767,0.73522 -5.03557,4.08167 -6.41995,4.88959 -9.59873,5.6018 -20.58157,21.19136 -29.79129,14.97068 -1.06004,-0.71601 -1.09075,-1.304 -1.40771,-2.33515 -3.25037,-5.85713 -18.68845,-0.28318 -22.92372,0.76236 -6.29054,1.88719 -12.60223,3.70354 -18.88962,5.60123 -5.33506,1.61025 -13.70969,5.06734 -19.50218,5.38209 -1.02056,0.0555 -2.02723,-0.26232 -3.04084,-0.39348 -0.74879,-0.51003 -1.61635,-0.87904 -2.24637,-1.53011 -2.25014,-2.32533 -0.82263,-6.9124 -5.12721,-6.50454 -8.9451,2.89345 -26.34818,13.20172 11.0775,-7.6962 2.0386,-1.13832 -3.95108,2.48932 -5.91145,3.75765 -1.94959,1.26135 -3.89473,2.53006 -5.81803,3.83114 -1.75224,1.18536 -3.47176,2.41836 -5.20764,3.62754 -9.93879,5.74494 -19.75328,11.7105 -29.81637,17.23482 -2.3581,1.29452 -4.65374,1.95771 -7.0671,0.43069 -3.20412,-2.02736 -2.127,-6.56449 -1.67577,-9.47008 0.86238,-5.11765 1.87187,-10.27859 2.13004,-15.47438 0.0566,-1.1399 0.0137,-2.28463 -0.0634,-3.42332 -0.016,-0.23546 -0.41365,-0.54857 -0.21425,-0.67479 7.77373,-4.92086 15.78684,-9.45297 23.68026,-14.17945 -1.00266,0.58081 -2.12179,0.9959 -3.00798,1.74245 -1.25203,1.05473 -2.25222,2.37734 -3.33744,3.60304 -4.09695,4.62733 -8.06771,9.35899 -11.95854,14.15952 -9.1538,5.31244 -17.88836,11.42388 -27.46139,15.9373 -0.88308,0.41636 -1.65286,-1.13885 -2.17045,-1.96667 -1.16301,-1.8601 2.31563,-10.26041 2.15527,-12.73499 9.13397,-5.25671 18.12764,-10.76509 27.4019,-15.77013 0.56676,-0.30587 -0.8216,1.00551 -1.11018,1.58126 -2.19543,4.38024 -3.35761,9.26711 -4.75571,13.9263 -0.54817,1.82678 -1.13297,3.64236 -1.69946,5.46354 -1.00392,3.52796 -1.75862,5.9984 -2.57685,9.51181 -0.23016,0.98826 0.28109,2.48114 -0.60002,2.9844 -30.13721,17.21327 -27.1328,22.55905 -28.23178,7.99495 -0.44458,-4.79334 -0.89748,-9.58647 -1.83894,-14.31509 -0.27762,-1.39439 -0.65804,-2.76633 -0.98671,-4.14958 -0.0968,-0.40729 -0.63821,-0.99026 -0.28959,-1.22202 7.89302,-5.24728 16.20727,-9.83155 24.3109,-14.74733 -0.79052,0.87212 -1.73558,1.62588 -2.37157,2.61635 -1.89671,2.95383 -4.87204,10.10684 -5.99007,12.95283 -3.44038,8.75767 -6.34519,17.72837 -9.58804,26.55861 -1.66199,4.48789 -3.42144,8.93937 -5.07416,13.43068 -0.49635,1.34883 -0.17279,3.315 -1.38815,4.08219 -23.14765,14.6118 -25.79128,24.1905 -30.28588,9.62495 -2.34558,-9.89384 -3.59072,-20.03912 -6.22624,-29.85048 8.51489,-5.04972 16.94334,-10.24814 25.54468,-15.14916 0.45612,-0.2599 -0.87003,0.6874 -1.03739,1.18497 -0.38663,1.1495 -0.45212,2.38638 -0.5698,3.59344 -0.33079,3.39289 -0.33863,6.81032 -0.59701,10.2095 -0.11857,1.55993 -0.28217,3.11611 -0.42325,4.67416 -0.0586,0.45689 -1.35712,9.87124 -1.50598,9.9746 -12.89659,8.95431 -18.86633,19.82497 -30.72047,15.20471 -5.54157,-3.37364 -10.74973,-7.40773 -15.58745,-11.71413 -3.42109,-3.73729 -6.1407,-7.34408 -6.48277,-12.60344 0.13759,-7.44444 3.22011,-13.23973 5.92109,-20.07094 4.3852,-12.80841 14.26481,-51.19296 36.8644,-37.44905 1.96077,3.8978 3.19309,12.15824 7.15749,14.24329 0.72134,0.37939 1.58756,0.36978 2.38133,0.55467 10.90804,-2.53711 4.73082,-1.41294 -18.54758,12.1778 -1.62468,0.94854 9.019,-5.10333 10.51419,-6.24515 5.36117,-4.09409 4.16416,-5.99757 9.07422,-10.58904 10.90502,-10.88197 6.90724,-7.57893 32.87276,-20.03281 0.90495,-0.43405 2.01921,0.38356 2.86647,0.92158 2.58497,1.6415 3.16075,5.61372 4.3516,8.10334 0.27009,0.67156 1.34912,3.61531 1.9956,4.43232 0.20512,0.25922 0.52734,0.50802 0.85774,0.4977 0.33988,-0.0106 1.1512,-0.72415 0.85833,-0.55134 -24.14835,14.24897 -30.87624,19.49327 -21.20062,12.1555 13.44189,-14.93256 4.58926,-9.51313 35.07509,-25.71622 0.7797,-0.4144 1.78158,0.30741 2.53544,0.76715 0.65446,0.39911 1.0221,1.14268 1.53314,1.71402 3.10314,5.67151 4.57046,12.53144 9.27805,17.145 9.73509,-2.4859 5.15318,-1.43105 -22.12708,13.70581 -1.1358,0.63022 1.97522,-1.69881 2.8412,-2.66695 3.70643,-4.14369 6.31487,-9.08909 9.43333,-13.65226 7.84597,-12.63847 3.55052,-7.1462 30.83323,-19.96655 0.87413,-0.41076 1.84581,0.76385 2.48772,1.4855 2.31468,2.60224 1.91914,8.10319 3.87711,10.94016 0.47507,1.0456 2.10908,5.28815 3.45625,6.33972 0.43072,0.33621 2.0817,-0.0987 1.62652,0.20361 -7.39258,4.90915 -15.16763,9.21647 -22.75145,13.8247 1.25983,-0.95478 2.60681,-1.80433 3.77947,-2.86434 1.58596,-1.43361 2.98237,-3.0639 4.47356,-4.59585 6.41555,-7.73811 3.54834,-4.16384 9.95619,-12.38375 1.59362,-2.04428 2.70785,-4.57311 4.77415,-6.13807 9.32037,-7.05897 19.04565,-13.62123 29.12908,-19.53924 2.23453,-1.31146 3.61156,1.47224 4.41778,2.58113 1.17005,3.35632 1.96939,6.78529 3.07372,10.16301 0.27046,0.82724 0.50445,1.67164 0.86728,2.46273 0.14609,0.31851 0.94295,0.64925 0.64352,0.83128 -8.32048,5.05835 -2.64996,25.43622 -11.146,30.1938 0.49697,-0.0548 -13.2559,-15.7918 -12.85121,-16.0854 0.89179,-0.64699 2.36767,-4.10449 2.64206,-4.72406 6.37386,-14.39187 -0.77873,-6.63413 29.75389,-20.73957 3.66024,5.15192 0.83233,12.80531 3.61545,18.4577 0.28972,0.29486 0.47091,0.77381 0.86917,0.88457 0.40428,0.11243 0.81456,-0.20202 1.22184,-0.30303 -7.67581,4.59034 -15.35161,9.18067 -23.02742,13.77101 -1.14607,0.6482 2.10651,-1.58793 3.07119,-2.48406 2.55665,-2.37497 4.10555,-4.3954 6.33425,-7.05963 9.54683,-5.46944 18.70824,-11.67468 28.64047,-16.40832 0.99664,-0.47499 18.09841,1.80288 18.30595,2.88725 3.26353,17.05188 -12.76091,14.18269 -11.44605,17.46109 0.37382,3.10012 0.50204,11.86931 3.00036,14.19569 1.19966,1.1171 2.70934,0.37378 4.00469,0.11889 -39.29101,23.50504 -24.68428,15.26873 -16.66911,9.62281 8.06743,-5.68274 15.66884,-12.0076 23.57056,-17.91247 9.98107,-5.8287 19.64267,-12.2426 29.94321,-17.48612 2.46258,-1.25358 5.01952,0.61176 5.99281,2.62629 1.63658,3.38738 0.84964,8.4993 1.95651,12.07315 0.50214,1.82758 0.75396,5.29 3.53237,4.95146 0.9319,-0.11355 3.49731,-1.28296 2.70749,-0.7755 -4.97511,3.19649 -32.74353,19.43306 -16.74064,10.06472 3.85223,-2.62916 6.71368,-4.47852 10.36671,-7.38517 1.53381,-1.22042 3.01784,-2.50422 4.46818,-3.82275 1.09303,-0.99369 1.86621,-2.39199 3.15733,-3.10972 9.45714,-5.25716 18.98693,-10.45363 28.92778,-14.72617 0.65105,-0.27982 0.72887,1.21547 1.09331,1.82321 -0.41548,2.46967 -2.28142,7.06731 -1.21959,9.39162 0.0323,0.0707 0.0482,-0.14772 0.0724,-0.22157 -8.31653,4.77169 -16.6491,9.51551 -24.94958,14.31507 -0.54952,0.31774 1.1702,-0.51103 1.69474,-0.86851 3.46532,-2.36166 6.15362,-5.84012 9.41948,-8.4486 11.16403,-6.6104 29.5304,-23.47641 30.59052,-13.18818 0.22093,2.14406 -0.53991,4.42557 -0.12108,6.58715 -0.0418,0.70269 -0.14149,0.66973 0.28894,0.12522 -8.10469,4.8541 -16.20937,9.7082 -24.31406,14.56229 -0.72555,0.41527 1.28918,-1.07472 1.84291,-1.70101 2.01566,-2.27978 2.49858,-3.48883 4.03896,-6.20104 6.24342,-12.52608 0.92631,-3.38353 29.72056,-17.91757 0.45466,-0.22949 -0.80081,0.66538 -1.05095,1.10901 -1.71868,3.04822 -2.16974,6.7225 -3.71178,9.84848 -1.17187,3.73601 -0.91322,3.08666 -2.17329,6.49413 -1.08262,2.92762 -2.12375,2.34356 -0.20968,1.63114 9.2669,-2.18659 12.1397,5.41101 16.71052,11.92682 7.13769,9.99902 15.24576,19.73416 27.98069,22.00815 5.35635,0.55222 14.18026,-0.0487 18.37848,3.8983 0.73463,0.69067 1.19318,1.62576 1.78977,2.43864 0.19894,0.96338 0.5174,1.90965 0.59683,2.89016 0.33402,4.12319 -1.09597,8.28121 -0.58167,12.40751 -4.44125,-9.5601 0.15832,-0.43226 -24.89053,13.91007 -0.73287,0.41963 1.30089,-1.10805 1.77791,-1.80492 2.48867,-3.63562 3.75388,-8.07924 5.05073,-12.22054 3.03443,-12.18333 7.07089,-7.12885 26.20546,-18.29979 0.60738,-0.35459 -1.32461,0.55965 -1.83201,1.04667 -1.23524,1.18563 -2.50408,3.71042 -3.31275,5.15249 -0.41089,0.86038 -0.84841,1.70855 -1.23266,2.58116 -0.30569,0.6942 -0.17349,1.74701 -0.83595,2.11648 -42.35013,23.6194 -29.26938,20.84581 -24.58996,7.68943 0.37634,-1.22308 0.75054,-2.44682 1.12902,-3.66925 0.29434,-0.95066 0.2492,-2.08809 0.88944,-2.84998 0.28106,-0.33446 0.90153,0.4753 1.2838,0.2638 8.35043,-4.62013 16.41837,-9.73336 24.62756,-14.60004 -0.69517,0.57055 -1.50584,1.02407 -2.08551,1.71166 -0.90355,1.07177 -1.54435,2.33995 -2.31652,3.50992 -2.55312,4.62925 -4.47767,9.39584 -6.75182,14.15436 -0.65824,1.37733 -1.44331,2.69059 -2.13916,4.04931 -0.53745,1.04944 -0.60149,2.4883 -1.56036,3.17441 -8.63036,6.17537 -17.8861,11.42628 -26.82915,17.13942 -0.66651,-0.38264 -1.42146,-0.64146 -1.99952,-1.14791 -2.60499,-2.28225 -1.15679,-8.18057 -2.61865,-11.22188 -1.67327,-4.27485 -4.12062,-3.31714 -8.11709,-3.15602 -5.18901,-0.0432 -7.80042,-1.48147 -8.1303,-7.05939 -0.39475,-7.88988 -1.54735,-15.89637 -8.87401,-20.35176 -1.39096,-0.50405 -2.73411,-1.16746 -4.17286,-1.51215 -8.85078,-2.12046 -23.93542,3.47313 -32.76476,4.31264 -4.91363,0.50963 -3.28467,7.47311 -6.36617,2.36678 -0.61866,-1.02518 -3.80979,-14.41786 -4.08417,-15.45338 -1.12515,-2.17409 -1.23561,-3.41866 -3.70035,-4.36517 -2.18513,-0.83914 -4.63015,-0.34672 -6.71273,0.45748 -1.52022,0.58705 -5.74644,3.07123 -4.35022,2.23085 6.82567,-4.10829 13.76415,-8.02616 20.64623,-12.03925 -11.40287,7.18386 -18.57256,11.7664 -33.34204,19.68375 -5.54964,2.97495 -7.01187,-2.90505 -6.8652,-6.88214 -0.0827,-3.26182 0.0651,-19.51896 -4.90215,-19.57044 -1.00351,-0.0104 -1.94136,0.50955 -2.91204,0.76432 -2.80202,1.26106 -10.89952,5.66569 -8.25901,4.09429 6.56862,-3.90906 13.19309,-7.72409 19.83095,-11.51439 1.89994,-1.08488 -3.75089,2.25349 -5.61587,3.39741 -20.46919,12.55523 24.07664,-13.95173 -35.63467,21.11938 -2.69184,1.242 -5.04566,2.90649 -8.19621,2.40494 -6.04149,-0.96176 -5.88163,-8.84224 -6.13851,-13.30187 -0.16486,-1.51717 -0.28223,-3.04024 -0.4946,-4.55149 -0.14372,-1.02276 -0.3517,-2.03617 -0.57288,-3.04502 -0.0346,-0.15783 -0.33081,-0.36183 -0.19226,-0.44495 50.27597,-30.16387 28.28751,-18.79335 21.64562,-11.62959 -0.50414,0.71505 -3.84795,5.57379 -4.47551,5.91222 -56.2099,30.31293 -29.91874,22.74243 -27.35015,12.5711 0.92656,-4.05171 1.9023,-11.47019 -1.18686,-14.86847 -0.45088,-0.49599 -1.16406,-0.66495 -1.74609,-0.99742 -0.88202,0.0273 -1.77974,-0.0861 -2.64606,0.0818 -10.85063,2.10291 -41.28252,22.36785 0.26479,-2.62558 -10.13294,5.89257 -20.23182,11.84411 -30.39882,17.67773 -2.86282,1.64263 -7.28191,4.55479 -10.90984,3.43535 -2.13066,-0.65744 -2.51605,-1.96522 -3.58725,-3.67034 -2.38081,-5.66287 -3.77285,-12.86987 -9.48558,-16.11693 -2.77288,-0.01 -2.05708,-0.25081 -4.91536,0.89756 -1.12093,0.45035 -4.33336,2.12226 -3.30227,1.49286 40.65571,-24.81713 22.60879,-13.28727 13.66009,-7.82236 -3.22251,2.48063 -3.74483,2.8093 -6.77655,5.42454 -1.01554,0.87604 -3.92451,3.64704 -5.2428,4.43683 -9.27421,5.55625 -18.66636,10.91336 -28.0232,16.32931 -0.74767,0.43277 -1.52581,0.81061 -2.28872,1.21591 -0.7049,0.285 -1.36024,0.76068 -2.1147,0.855 -5.00243,0.62537 -6.30171,-6.04179 -7.81225,-9.33832 -1.05725,-2.65917 -1.93946,-6.01178 -4.16743,-8.00478 -7.23964,-6.47608 -37.30185,20.07923 19.08337,-14.57479 -7.34851,3.9271 -13.35943,9.84279 -19.73673,15.1241 -9.32591,5.3231 -31.05624,24.74975 -40.60931,29.65349 -1.23616,0.63454 9.44103,-14.68606 8.818,-15.46337 -1.32575,-1.65404 -1.57333,-3.90797 -1.93202,-5.90529 -2.54386,-11.51939 -0.83758,-1.37587 26.16711,-16.64323 0.39587,-0.22381 -0.13569,0.90111 -0.1548,1.35547 -0.0326,0.77495 -0.0622,1.55013 -0.0766,2.32563 -0.0211,1.13494 -0.0199,2.27019 -0.0298,3.40529 -0.0661,8.52076 -0.14253,17.0453 0.0974,25.56394 l -26.66601,13.58701 z"
       inkscape:connector-curvature="0"
       sodipodi:nodetypes="ccccscsscccsccssscscccsscsccscsscscscssscscccscssscscscccccscscscsccscccscscccsccccsscccsccscccsscsscccscsscccssscscscsccsssscscccscsssccccsscssccscssccsscccccsscccscsccssccsscsscssscccsccsccssscscsccsccsscscscsscscsscssssscsscsscsccsccscsccccsssccsccssscssccsssscscsccscccsccscsccsssccccccccsccccssccscscsscsccsccssccsscssscccccccssscccccsscscsscscsscsssscscsscccsccsscssccsccscssscsscccscssccscssscsscscscsscssccsssscccccccscsscsscccscscccsscsscsccscssscscccssccsccscsscscscsscsscsssscccsscscccscsccscccscscsscsscsscssscscssscsccccscscssscscscssscscscccscscscssccsscssscscsccsscssccccc" />
    <path
       style="fill:#ff7f2a"
       d="M 331.33004,682.64632 472.7514,672.5448 450.52804,765.47883 347.49248,763.45852 z"
       id="rect3040"
       inkscape:connector-curvature="0"
       sodipodi:nodetypes="ccccc" />
    <path
       style="fill:#000000"
       d="m 424.26408,794.77325 c 0,37.37876 -51.70951,65.65992 -103.03556,65.65992 -51.32605,0 -80.8122,-28.28116 -80.8122,-65.65992 0,-37.37875 39.58768,-67.68022 90.91373,-67.68022 51.32605,0 92.93403,30.30147 92.93403,67.68022 z"
       id="path3043"
       inkscape:connector-curvature="0"
       sodipodi:nodetypes="sssss" />
    <path
       style="fill:#000000"
       d="m 549.52297,813.96619 c 0,46.86291 -30.03434,38.38579 -71.87624,38.38579 -41.84188,0 -79.64664,8.47712 -79.64664,-38.38579 0,-46.86292 33.91956,-84.85282 75.76144,-84.85282 41.8419,0 75.76144,37.9899 75.76144,84.85282 z"
       id="path3045"
       inkscape:connector-curvature="0"
       sodipodi:nodetypes="sssss" />
    <rect
       style="fill:#000000"
       id="rect3055"
       width="159.4341"
       height="333.47049"
       x="315.1676"
       y="729.11334" />
    <rect
       style="fill:#000000"
       id="rect3057"
       width="127.44913"
       height="278.39603"
       x="236.3757"
       y="783.66162" />
    <path
       style="fill:#000000"
       d="m 462.64987,783.66162 86.87312,9.43715 2.10526,268.95883 -88.97838,0 z"
       id="rect3059"
       inkscape:connector-curvature="0"
       sodipodi:nodetypes="ccccc" />
    <path
       style="fill:#ff0000"
       d="m 348.07804,850.70874 c 9.51843,-6.06893 -23.88043,12.36773 -41.43519,12.36773 -17.55477,0 -32.5,-16.13396 -32.5,-33.39286 0,-17.2589 17.089,-30.00051 34.64286,-29.82143 17.54581,0.17899 23.37712,60.99406 39.29233,50.84656 z"
       id="path3066"
       inkscape:connector-curvature="0"
       sodipodi:nodetypes="sssss" />
    <path
       sodipodi:type="arc"
       style="fill:#ffffff"
       id="path3068"
       sodipodi:cx="335.53571"
       sodipodi:cy="824.68359"
       sodipodi:rx="10.892858"
       sodipodi:ry="10.892858"
       d="m 346.42856,824.68359 c 0,6.01596 -4.8769,10.89286 -10.89285,10.89286 -6.01596,0 -10.89286,-4.8769 -10.89286,-10.89286 0,-6.01596 4.8769,-10.89285 10.89286,-10.89285 6.01595,0 10.89285,4.87689 10.89285,10.89285 z"
       transform="translate(-38,0)" />
    <path
       sodipodi:type="arc"
       style="fill:#000000"
       id="path3070"
       sodipodi:cx="335.71429"
       sodipodi:cy="828.61218"
       sodipodi:rx="4.2857141"
       sodipodi:ry="3.75"
       d="m 340.00001,828.61218 c 0,2.07107 -1.91878,3.75 -4.28572,3.75 -2.36693,0 -4.28571,-1.67893 -4.28571,-3.75 0,-2.07107 1.91878,-3.75 4.28571,-3.75 2.36694,0 4.28572,1.67893 4.28572,3.75 z"
       transform="translate(-38,0)" />
    <path
       style="fill:#ff0000;stroke:#000000;stroke-width:1px;stroke-linecap:butt;stroke-linejoin:miter;stroke-opacity:1"
       d="m 303.07143,861.6479 c 0.47619,0.11904 0.98954,0.13763 1.42857,0.35714 0.30117,0.15058 0.43412,0.52751 0.71429,0.71429 0.44298,0.29532 0.9771,0.43211 1.42857,0.71428 4.80295,3.00185 17.77147,-9.15712 24.28572,-5.35714 0.68981,0.40239 -6.78572,2.14286 -18.57144,8.92857 -0.92277,0.53129 15.48905,-6.57251 16.42858,-6.07143 4.67376,2.49268 -13.36039,7.94948 -7.85715,10.35714 2.08954,0.91418 2.69718,1.08158 4.64286,2.14286 4.3573,2.37671 -0.53706,-0.20173 3.21428,2.14286 3.45437,1.72718 -0.0386,-0.20755 2.14286,1.42857 0.21296,0.15972 0.52606,0.16891 0.71429,0.35714 0.0842,0.0842 -0.0532,0.25067 0,0.35715 0.81725,1.6345 -0.14803,-1.51551 0.71428,1.07142 0.0376,0.11294 -0.066,0.25809 0,0.35715 0.56924,0.85385 0.82719,0.45158 1.07143,1.42857 0.0577,0.23098 -0.10648,0.50132 0,0.71428 0.0532,0.10648 0.27297,-0.0842 0.35714,0 0.0842,0.0842 -0.0289,0.24165 0,0.35715 0.0913,0.36522 0.26584,0.7062 0.35715,1.07143 0.0289,0.11549 -0.0376,0.2442 0,0.35714 0.0842,0.25254 0.27296,0.46175 0.35714,0.71428 0.10023,0.30069 -0.10631,1.57309 0,1.78572 0.0753,0.15058 0.28185,0.20656 0.35714,0.35714 0.16836,0.33672 0.26584,0.70621 0.35715,1.07143 0.0289,0.11549 -0.0532,0.25066 0,0.35714 0.0753,0.15059 0.28185,0.20656 0.35714,0.35715 0.14286,0.28571 -0.14286,0.78571 0,1.07142 0.0753,0.15059 0.28185,0.20656 0.35714,0.35715 0.0532,0.10648 -0.0842,0.27296 0,0.35714 0.0842,0.0842 0.27297,-0.0842 0.35714,0 0.16836,0.16836 -0.10647,0.50133 0,0.71429 0.15059,0.30116 0.56371,0.41311 0.71429,0.71428 0.0708,0.14161 -0.073,0.99842 0,1.07143 0.0842,0.0842 0.27296,-0.0842 0.35714,0 0.17857,0.17857 -0.17857,0.89286 0,1.07143 0.0842,0.0842 0.2381,0 0.35715,0 0.11904,0.23809 0.27296,0.46175 0.35714,0.71428 0.0753,0.22588 -0.16836,0.54593 0,0.71429 0.0842,0.0842 0.27296,-0.0842 0.35714,0 0.17857,0.17857 -0.17857,0.89286 0,1.07143 0.0842,0.0842 0.27297,-0.0842 0.35714,0 0.0842,0.0842 -0.0532,0.25066 0,0.35714 0.0753,0.15059 0.28186,0.20656 0.35715,0.35714 0.14285,0.28572 -0.14286,0.78572 0,1.07143 0.0753,0.15059 0.28185,0.20656 0.35714,0.35715 0.11224,0.22447 -0.11224,1.20409 0,1.42857 0.0753,0.15058 0.28185,0.20655 0.35714,0.35714 0.04,0.0801 0,1.3437 0,1.42857 0,1.19048 0,2.38095 0,3.57143 0,0.95238 0,1.90476 0,2.85714 0,0.19934 0.0545,1.62223 0,1.78572 -0.0532,0.15972 -0.28185,0.20655 -0.35714,0.35714 -0.12334,0.24669 0.12536,1.66035 0,1.78571 -0.0842,0.0842 -0.27296,-0.0842 -0.35714,0 -0.0842,0.0842 0.0842,0.27297 0,0.35715 -0.0842,0.0842 -0.27297,-0.0842 -0.35715,0 -0.11846,0.11846 0.11847,0.59582 0,0.71428 -0.0842,0.0842 -0.27296,-0.0842 -0.35714,0 -0.16836,0.16836 0.0753,0.48841 0,0.71429 -0.0842,0.25254 -0.16891,0.52605 -0.35714,0.71428 -0.0842,0.0842 -0.27296,-0.0842 -0.35714,0 -0.0842,0.0842 0.0376,0.24421 0,0.35715 -0.86232,2.58693 0.10296,-0.56308 -0.71429,1.07143 -0.0532,0.10647 0.0842,0.27296 0,0.35714 -0.0842,0.0842 -0.27296,-0.0842 -0.35714,0 -0.0842,0.0842 0,0.23809 0,0.35714"
       id="path3076"
       inkscape:connector-curvature="0"
       sodipodi:nodetypes="csssssssscsscccccccccccscccccccccccsccscscccccccssscssccccccscccccc" />
    <path
       style="fill:#ff0000;stroke:#000000;stroke-width:1px;stroke-linecap:butt;stroke-linejoin:miter;stroke-opacity:1"
       d="m 335.57143,844.1479 c 2.52883,0.6322 0.55081,-0.12261 2.14286,1.07143 0.21296,0.15971 0.48602,0.22018 0.71428,0.35714 0.36807,0.22084 0.71429,0.47619 1.07143,0.71428 0.35714,0.2381 0.74168,0.4395 1.07143,0.71429 0.38801,0.32334 0.71428,0.71429 1.07143,1.07143 0.47619,0.47619 0.95238,0.95238 1.42857,1.42857 0.23809,0.23809 0.45135,0.50394 0.71428,0.71429 0.33518,0.26813 0.73626,0.44614 1.07143,0.71428 0.26294,0.21035 0.47619,0.47619 0.71429,0.71429 0.35714,0.35714 0.75591,0.67703 1.07143,1.07143 0.16629,0.20786 0.16891,0.52605 0.35714,0.71428 0.18823,0.18823 0.56663,0.13565 0.71429,0.35714 0.13207,0.19811 -0.10648,0.50133 0,0.71429 0.0216,0.0432 1.36572,1.34478 1.42857,1.42857 0.15972,0.21296 0.19742,0.50133 0.35714,0.71429 0.20203,0.26937 0.5637,0.41311 0.71429,0.71428 0.10648,0.21296 -0.0753,0.48841 0,0.71429 0.18287,0.54861 0.77972,0.27673 1.07142,0.71428 0,2.02381 -0.23809,0.11905 0.35715,0.71429 0.16836,0.16836 -0.16836,0.54593 0,0.71429 0.0842,0.0842 0.27296,-0.0842 0.35714,0 0.0842,0.0842 -0.0842,0.27296 0,0.35714 0.0842,0.0842 0.27296,-0.0842 0.35714,0 0.18823,0.18823 0.20949,0.49279 0.35715,0.71428 0.0934,0.14009 0.28185,0.20656 0.35714,0.35715 0.0532,0.10648 0,0.23809 0,0.35714 0.11905,0.35714 0.14832,0.75819 0.35714,1.07143 0.066,0.0991 0.30391,-0.10648 0.35714,0 0.10648,0.21296 -0.10647,0.50132 0,0.71428 0.15059,0.30117 0.51226,0.44492 0.71429,0.71429 0.35896,0.47861 0.5085,1.27124 0.71429,1.78571 0.53455,1.33639 0.23293,0.10873 1.07142,1.78572 0.0532,0.10648 0,0.23809 0,0.35714 0.11905,0.35714 0.18879,0.73471 0.35715,1.07143 0.0753,0.15058 0.31631,0.19381 0.35714,0.35714 0.0866,0.34648 -0.07,0.72122 0,1.07143 0.0522,0.26103 0.25828,0.46713 0.35714,0.71429 0.13982,0.34953 0.26584,0.7062 0.35715,1.07143 0.14722,0.5889 0.20991,1.19681 0.35714,1.78571 0.0913,0.36522 0.29525,0.70009 0.35714,1.07143 0.0587,0.35228 -0.0587,0.71914 0,1.07143 0.0619,0.37134 0.28331,0.70227 0.35714,1.07143 0.3816,1.90799 -0.67865,-0.80378 0.35715,1.78571 0.38095,0.95238 0.47738,0.60122 0.71428,1.78571 0.13737,0.68682 -0.13736,1.45605 0,2.14286 0.033,0.16509 0.30391,0.19742 0.35715,0.35714 0.0753,0.22588 -0.0577,0.4833 0,0.71429 0.0646,0.25825 0.29258,0.45603 0.35714,0.71429 0.0577,0.23098 -0.0577,0.48329 0,0.71428 0.0646,0.25825 0.31338,0.45171 0.35714,0.71429 0.84109,5.04651 -1.16556,-2.87656 0.35714,3.21428 0.18262,0.73045 0.59051,1.40018 0.71429,2.14286 0.0587,0.35228 -0.0866,0.72495 0,1.07143 0.0408,0.16333 0.3039,0.19742 0.35714,0.35714 0.0544,0.16335 -0.0795,1.26965 0,1.42857 0.0753,0.15059 0.28185,0.20656 0.35715,0.35715 0.11327,0.22654 -0.11601,1.5537 0,1.78571 0.0753,0.15058 0.28185,0.20656 0.35714,0.35714 0.10648,0.21296 -0.0753,0.48841 0,0.71429 0.0842,0.25254 0.27296,0.46175 0.35714,0.71428 0.0672,0.2015 0,0.83675 0,1.07143 0,0.83334 0,1.66667 0,2.5 0,0.16268 0.0454,1.36806 0,1.42857 -0.30304,0.40406 -0.75591,0.67703 -1.07143,1.07143 -0.64993,0.81242 -0.0314,0.55923 -0.71428,1.07143 -0.34339,0.25754 -0.73626,0.44615 -1.07143,0.71429 -0.26293,0.21034 -0.41312,0.5637 -0.71429,0.71428 -1.62581,0 -0.0204,-0.16836 -1.07143,0.35715 -0.21295,0.10647 -0.48081,-0.0467 -0.71428,0 -0.48131,0.0963 -0.94726,0.26088 -1.42857,0.35714 -0.35715,0.0714 -0.71429,-0.14286 -1.07143,0 -0.36061,0.14424 -1.2657,0.96742 -1.78572,1.07143 -0.3502,0.07 -0.72122,-0.07 -1.07142,0 -0.52206,0.10441 -0.9235,0.54592 -1.42858,0.71428 -0.11293,0.0376 -0.23809,0 -0.35714,0 -0.23809,0.11905 -0.46175,0.27297 -0.71428,0.35715 -0.11294,0.0376 -0.27297,-0.0842 -0.35715,0 -0.0842,0.0842 0.10648,0.3039 0,0.35714 -0.21296,0.10648 -0.48841,-0.0753 -0.71428,0 -0.15972,0.0532 -0.20656,0.28185 -0.35715,0.35714 -0.10647,0.0532 -0.25066,-0.0532 -0.35714,0 -0.47183,0.23592 -0.24246,0.47837 -0.71428,0.71429 -0.10648,0.0532 -0.25067,-0.0532 -0.35715,0 -1.18449,1.18449 0.33672,-0.16836 -0.71428,0.35714 -0.15059,0.0753 -0.20656,0.28185 -0.35715,0.35714 -0.10647,0.0532 -0.25066,-0.0532 -0.35714,0 -0.15058,0.0753 -0.20656,0.28185 -0.35714,0.35715 -0.10648,0.0532 -0.25066,-0.0532 -0.35714,0 -0.15059,0.0753 -0.20656,0.28185 -0.35715,0.35714 -0.0923,0.0462 -1.88971,0 -2.14285,0 -0.83334,0 -1.66667,0 -2.5,0 -0.16085,0 -0.96274,-0.0543 -1.07143,0 -0.15059,0.0753 -0.20656,0.28185 -0.35715,0.35714 -0.1416,0.0708 -0.99841,-0.073 -1.07142,0 -0.0842,0.0842 0.11904,0.35714 0,0.35714 -0.52551,0 0.82735,-1.18449 -0.35715,0"
       id="path3078"
       inkscape:connector-curvature="0" />
    <path
       style="fill:#ff0000;stroke:#000000;stroke-width:1px;stroke-linecap:butt;stroke-linejoin:miter;stroke-opacity:1"
       d="m 306.28571,858.43361 c -0.23809,0.47619 -0.51655,0.93425 -0.71428,1.42857 -0.0884,0.22107 0,0.47619 0,0.71429 0,0.47619 -0.11549,0.9666 0,1.42857 0.0408,0.16333 0.31631,0.19381 0.35714,0.35714 0.0866,0.34648 -0.11294,0.73262 0,1.07143 0.13574,0.40721 0.49345,0.70337 0.71429,1.07143 0.13696,0.22826 0.19085,0.50642 0.35714,0.71429 0.31552,0.39439 0.74809,0.68341 1.07143,1.07142 0.27479,0.32975 0.41077,0.76792 0.71428,1.07143 0.18824,0.18823 0.50133,0.19743 0.71429,0.35715 0.53875,0.40406 0.88982,1.02451 1.42857,1.42857 0.21296,0.15972 0.50133,0.19742 0.71429,0.35714 1.54474,1.54475 -0.0946,0.056 1.42857,1.07143 0.42025,0.28016 0.66737,0.76838 1.07143,1.07143 0.21296,0.15972 0.52605,0.16891 0.71428,0.35714 0.30352,0.30351 0.41078,0.76791 0.71429,1.07143 0.18823,0.18823 0.48602,0.22018 0.71428,0.35714 0.36807,0.22084 0.70337,0.49345 1.07143,0.71429 0.22827,0.13695 0.50133,0.19742 0.71429,0.35714 0.26937,0.20203 0.42555,0.54105 0.71428,0.71429 1.20045,0.72026 0.82206,-0.008 1.78572,0.71428 0.26937,0.20203 0.41312,0.5637 0.71428,0.71429 0.21296,0.10648 0.49322,-0.0884 0.71429,0 0.39853,0.15941 0.72804,0.45674 1.07143,0.71428 0.13469,0.10102 0.19742,0.30391 0.35714,0.35715 0.22588,0.0753 0.51618,-0.13208 0.71429,0 0.22149,0.14766 0.13565,0.56662 0.35714,0.71428 0.19811,0.13207 0.51618,-0.13207 0.71429,0 0.22149,0.14766 0.13565,0.56663 0.35714,0.71429 0.19811,0.13207 0.48841,-0.0753 0.71428,0 0.31944,0.10648 0.43412,0.52751 0.71429,0.71428 0.22149,0.14766 0.52606,0.16891 0.71429,0.35715 0.0842,0.0842 -0.10648,0.3039 0,0.35714 0.21296,0.10648 0.50132,-0.10648 0.71428,0 0.30117,0.15058 0.44491,0.51225 0.71429,0.71428 0.21296,0.15972 0.49279,0.20949 0.71428,0.35715 0.14009,0.0934 0.22246,0.25612 0.35715,0.35714 3.54159,2.6562 -0.70706,-0.59042 1.78571,1.07143 0.14008,0.0934 0.20656,0.28185 0.35714,0.35714 0.33672,0.16836 0.73471,0.18879 1.07143,0.35714 0.35144,0.17572 1.07713,1.25286 1.42857,1.42858 0.21296,0.10647 0.50133,-0.10648 0.71429,0 0.42857,0.21428 0.64286,0.85714 1.07143,1.07142 0.10648,0.0532 0.25066,-0.0532 0.35714,0 0.15059,0.0753 0.20656,0.28185 0.35714,0.35715 0.10648,0.0532 0.25067,-0.0532 0.35715,0 0.47201,0.236 0.24227,0.47827 0.71428,0.71428 0.10648,0.0532 0.25067,-0.0532 0.35714,0 0.15059,0.0753 0.20656,0.28185 0.35715,0.35715 0.10648,0.0532 0.23809,0 0.35714,0 0.11905,0 0.2381,0 0.35714,0 0.0866,0 1.05995,0.0115 1.07143,0 0.16836,-0.16836 -0.0753,-0.48841 0,-0.71429 0.0842,-0.25254 0.20948,-0.4928 0.35714,-0.71429 0.18678,-0.28016 0.56371,-0.41311 0.71429,-0.71428 0.16836,-0.33672 0.21733,-0.72189 0.35714,-1.07143 0.0989,-0.24716 0.25828,-0.46713 0.35715,-0.71429 0.3693,-0.92325 0.57323,-1.86978 0.71428,-2.85714 0.0337,-0.2357 -0.0577,-0.4833 0,-0.71428 0.12913,-0.51651 0.64825,-0.90029 0.71429,-1.42858 0.0886,-0.70877 -0.0886,-1.43408 0,-2.14285 0.033,-0.26415 0.29939,-0.45443 0.35714,-0.71429 0.18261,-0.82175 0.26418,-1.66335 0.35714,-2.5 0.0263,-0.23664 -0.0577,-0.4833 0,-0.71428 0.0646,-0.25826 0.31338,-0.45171 0.35715,-0.71429 0.0783,-0.46971 0,-0.95238 0,-1.42857 0,-0.95238 0,-1.90476 0,-2.85714 0,-3.69048 0,-7.38096 0,-11.07143 0,-1.19048 0,-2.38096 0,-3.57143 0,-0.16084 0.0543,-0.96274 0,-1.07143 -0.0753,-0.15059 -0.28185,-0.20656 -0.35715,-0.35714 -0.0532,-0.10648 0.0842,-0.27297 0,-0.35715 -0.0842,-0.0842 -0.27296,0.0842 -0.35714,0 -0.0842,-0.0842 0.0842,-0.27296 0,-0.35714 -0.16836,-0.16836 -0.54593,0.16836 -0.71429,0 -0.0842,-0.0842 0.0842,-0.27296 0,-0.35714 -0.0842,-0.0842 -0.23809,0 -0.35714,0 -0.23809,0 -0.50132,0.10648 -0.71428,0 -0.10648,-0.0532 0,-0.2381 0,-0.35714 -0.2381,-0.11905 -0.45604,-0.29259 -0.71429,-0.35715 -0.26318,-0.0658 -1.57647,0.10462 -1.78571,0 -0.15059,-0.0753 -0.20656,-0.28185 -0.35715,-0.35714 -0.22447,-0.11224 -1.2041,0.11224 -1.42857,0 -0.15058,-0.0753 -0.20656,-0.28185 -0.35714,-0.35714 -0.13017,-0.0651 -1.57993,0 -1.78572,0 -1.07142,0 -2.14285,0 -3.21428,0 -0.59524,0 -1.19048,0 -1.78572,0 -0.35714,0 -0.73261,-0.11294 -1.07142,0 -0.15972,0.0532 -0.2381,0.23809 -0.35715,0.35714 -0.23809,0.11905 -0.45603,0.29258 -0.71428,0.35714 -0.56023,0.14006 -1.22549,-0.14005 -1.78572,0 -0.25825,0.0646 -0.47619,0.2381 -0.71428,0.35715 -0.35715,0 -0.72122,-0.0701 -1.07143,0 -0.52206,0.10441 -0.91207,0.58516 -1.42857,0.71428 -0.46197,0.11549 -0.97682,-0.15058 -1.42857,0 -0.15972,0.0532 -0.2381,0.2381 -0.35715,0.35714 -0.23809,0.11905 -0.45603,0.29258 -0.71428,0.35715 -0.31508,0.0788 -1.12262,-0.10199 -1.42857,0 -0.64641,-0.21526 -0.66423,0.57855 -1.07143,0.71428 -0.22588,0.0753 -0.48841,-0.0753 -0.71429,0 -0.15972,0.0532 -0.23809,0.2381 -0.35714,0.35715 -0.40863,0.40862 -0.42278,0.49806 -1.07143,0.71428 -0.33881,0.11294 -0.72495,-0.0866 -1.07143,0 -1.72462,0.43116 0.0177,0.16972 -1.07143,0.71429 -0.18982,0.0949 -0.52446,-0.0949 -0.71428,0 -0.15059,0.0753 -0.20656,0.28185 -0.35715,0.35714 -0.10647,0.0532 -0.27296,-0.0842 -0.35714,0 -0.0842,0.0842 0.0532,0.25066 0,0.35714 -0.0753,0.15059 -0.23809,0.2381 -0.35714,0.35715 -0.11905,0.11904 -0.20656,0.28185 -0.35714,0.35714 -0.21296,0.10648 -0.54593,-0.16836 -0.71429,0 -0.0842,0.0842 0.10648,0.3039 0,0.35714 -0.21296,0.10648 -0.50133,-0.10648 -0.71429,0 -0.10647,0.0532 0.0842,0.27296 0,0.35714 -0.0842,0.0842 -0.25066,-0.0532 -0.35714,0 -0.15058,0.0753 -0.20656,0.28185 -0.35714,0.35715 -0.28572,0.14285 -0.78572,-0.14286 -1.07143,0 -0.15058,0.0753 -0.21706,0.26375 -0.35714,0.35714 -0.22149,0.14766 -0.47619,0.23809 -0.71429,0.35714 -0.71428,0.35715 -1.42857,0.71429 -2.14286,1.07143 z"
       id="path3082"
       inkscape:connector-curvature="0" />
    <path
       sodipodi:type="arc"
       style="fill:#ff0000"
       id="path3086"
       sodipodi:cx="368.21429"
       sodipodi:cy="881.64789"
       sodipodi:rx="8.9285707"
       sodipodi:ry="23.928572"
       d="m 377.14287,881.64789 c 0,13.21538 -3.99746,23.92857 -8.92858,23.92857 -4.93111,0 -8.92857,-10.71319 -8.92857,-23.92857 0,-13.21539 3.99746,-23.92857 8.92857,-23.92857 4.93112,0 8.92858,10.71318 8.92858,23.92857 z"
       transform="translate(-38,0)" />
    <path
       sodipodi:type="arc"
       style="fill:#ff0000"
       id="path3088"
       sodipodi:cx="367.32144"
       sodipodi:cy="868.79077"
       sodipodi:rx="29.107143"
       sodipodi:ry="22.857143"
       d="m 396.42859,868.79077 c 0,12.62365 -13.03172,22.85714 -29.10715,22.85714 -16.07543,0 -29.10714,-10.23349 -29.10714,-22.85714 0,-12.62365 13.03171,-22.85714 29.10714,-22.85714 16.07543,0 29.10715,10.23349 29.10715,22.85714 z"
       transform="translate(-38,0)" />
    <path
       style="fill:#ff0000"
       d="m 475.57144,912.00503 c 0,26.62801 -37.6508,40.35714 -83.21429,40.35714 -45.56349,0 -87.5,-65.1577 -87.5,-91.78571 0,-26.62802 43.79968,-9.09588 88.21429,1.07142 40.56349,9.28572 82.5,23.72913 82.5,50.35715 z"
       id="path3092"
       inkscape:connector-curvature="0"
       sodipodi:nodetypes="sssss" />
    <path
       sodipodi:type="arc"
       style="fill:#ff0000"
       id="path3095"
       sodipodi:cx="423.57144"
       sodipodi:cy="913.79077"
       sodipodi:rx="2.1428571"
       sodipodi:ry="12.857142"
       d="m 425.7143,913.79077 c 0,7.10081 -0.95939,12.85714 -2.14286,12.85714 -1.18347,0 -2.14286,-5.75633 -2.14286,-12.85714 0,-7.1008 0.95939,-12.85714 2.14286,-12.85714 1.18347,0 2.14286,5.75634 2.14286,12.85714 z"
       transform="translate(-38,0)" />
    <path
       style="fill:#ff0000"
       d="m 319.56615,898.85028 41.71959,1.15741 0,74.49725 -44.0344,0 z"
       id="rect3097"
       inkscape:connector-curvature="0"
       sodipodi:nodetypes="ccccc" />
    <rect
       style="fill:#ff0000"
       id="rect3099"
       width="35.714287"
       height="53.57143"
       x="428.42856"
       y="926.64789" />
    <path
       style="fill:none;stroke:#000000;stroke-width:1px;stroke-linecap:butt;stroke-linejoin:miter;stroke-opacity:1"
       d="m 339.71016,976.64199 c 1.42857,-35.71428 -1.99587,-39.27981 -1.99587,-39.27981 l 2.14285,1.42857"
       id="path3101"
       inkscape:connector-curvature="0"
       sodipodi:nodetypes="ccc" />
    <path
       style="fill:none;stroke:#000000;stroke-width:1px;stroke-linecap:butt;stroke-linejoin:miter;stroke-opacity:1"
       d="m 447,979.50504 c -2.14286,-35.71429 -1.42857,-35.71429 -1.42857,-35.71429"
       id="path3103"
       inkscape:connector-curvature="0" />
    <rect
       style="fill:#000000"
       id="rect3105"
       width="22.857143"
       height="9.2857141"
       x="339.85715"
       y="966.64789" />
    <rect
       style="fill:#000000"
       id="rect3107"
       width="21.428572"
       height="12.142858"
       x="447"
       y="972.36218" />
    <path
       style="fill:#000000"
       id="path3110"
       d="m 288.47676,848.09392 c 2.5207,0.90616 5.07891,1.64971 7.71646,2.12089 2.24796,0.37168 4.52756,0.45378 6.80138,0.48235 0.64033,0.002 0.94113,0.0613 1.53933,-0.1388 0.20767,-0.0695 0.78195,-0.39393 0.59148,-0.28588 -15.6494,8.87728 -10.52603,6.26351 -7.63968,4.18943 0.73702,-0.61632 0.9391,-1.35813 0.78979,-2.27814 0,0 9.35665,-5.0302 9.35665,-5.0302 l 0,0 c 0.30282,1.13731 0.35089,2.24631 -0.3207,3.27078 -0.33011,0.39751 -0.4323,0.59261 -0.89061,0.85661 -5.62106,3.23785 -7.07701,5.80889 -11.99334,5.60936 -2.28938,-0.0806 -4.5823,-0.23341 -6.83509,-0.67203 -2.6614,-0.5437 -5.23138,-1.37319 -7.84499,-2.10323 0,0 8.72932,-6.02114 8.72932,-6.02114 z"
       inkscape:connector-curvature="0" />
    <path
       style="fill:#6c5d53"
       d="m 80.812202,773.56006 164.233498,0 -7.98347,77.91208 -156.250028,-1.14049 z"
       id="rect3114"
       inkscape:connector-curvature="0"
       sodipodi:nodetypes="ccccc" />
    <path
       style="fill:#6c5d53"
       d="m 544.39078,783.66162 170.79725,0 0,84.85281 -165.66502,0 z"
       id="rect3116"
       inkscape:connector-curvature="0"
       sodipodi:nodetypes="ccccc" />
    <path
       sodipodi:type="arc"
       style="fill:#000000"
       id="path3118"
       sodipodi:cx="65.714287"
       sodipodi:cy="811.64789"
       sodipodi:rx="40"
       sodipodi:ry="56.42857"
       d="m 105.71429,811.64789 c 0,31.16464 -17.908613,56.42857 -40.000003,56.42857 -22.09139,0 -40,-25.26393 -40,-56.42857 0,-31.16464 17.90861,-56.42857 40,-56.42857 22.09139,0 40.000003,25.26393 40.000003,56.42857 z" />
    <path
       sodipodi:type="arc"
       style="fill:#000000"
       id="path3120"
       sodipodi:cx="735"
       sodipodi:cy="823.07648"
       sodipodi:rx="35"
       sodipodi:ry="56.42857"
       d="m 770,823.07648 c 0,31.16464 -15.67003,56.42857 -35,56.42857 -19.32997,0 -35,-25.26393 -35,-56.42857 0,-31.16464 15.67003,-56.42857 35,-56.42857 19.32997,0 35,25.26393 35,56.42857 z" />
    <path
       style="fill:#ff0000"
       d="m 455.0754,884.55763 13.19444,12.50001 71.75926,43.05554 -78.24074,-5.78704 z"
       id="rect3137"
       inkscape:connector-curvature="0"
       sodipodi:nodetypes="ccccc" />
    <path
       style="fill:#808080;fill-opacity:1"
       d="m 236.2406,1058.3734 158.94737,-1.0526 -37.89474,330.5264 -121.05263,-1.0527 z"
       id="rect3148"
       inkscape:connector-curvature="0"
       sodipodi:nodetypes="ccccc" />
    <path
       style="fill:#808080;fill-opacity:1"
       d="m 390.97746,1057.3207 160,0.5263 0,328.4211 -113.35398,4.0299 z"
       id="rect3148-4"
       inkscape:connector-curvature="0"
       sodipodi:nodetypes="ccccc" />
    <path
       sodipodi:type="arc"
       style="fill:#000000;fill-opacity:1"
       id="path3170"
       sodipodi:cx="271.57895"
       sodipodi:cy="1268.8522"
       sodipodi:rx="90.526314"
       sodipodi:ry="35.789474"
       d="m 362.10526,1268.8522 c 0,19.766 -40.53001,35.7894 -90.52631,35.7894 -49.9963,0 -90.52631,-16.0234 -90.52631,-35.7894 0,-19.766 40.53001,-35.7895 90.52631,-35.7895 49.9963,0 90.52631,16.0235 90.52631,35.7895 z"
       transform="translate(24.225641,132.89716)" />
    <path
       transform="translate(225.9697,134.25808)"
       sodipodi:type="arc"
       style="fill:#000000;fill-opacity:1"
       id="path3170-0"
       sodipodi:cx="271.57895"
       sodipodi:cy="1268.8522"
       sodipodi:rx="90.526314"
       sodipodi:ry="35.789474"
       d="m 362.10526,1268.8522 c 0,19.766 -40.53001,35.7894 -90.52631,35.7894 -49.9963,0 -90.52631,-16.0234 -90.52631,-35.7894 0,-19.766 40.53001,-35.7895 90.52631,-35.7895 49.9963,0 90.52631,16.0235 90.52631,35.7895 z" />
  </g>
</svg>
