<?xml version="1.0" encoding="UTF-8" standalone="no"?>
<!-- Created with Inkscape (http://www.inkscape.org/) -->

<svg
   xmlns:dc="http://purl.org/dc/elements/1.1/"
   xmlns:cc="http://creativecommons.org/ns#"
   xmlns:rdf="http://www.w3.org/1999/02/22-rdf-syntax-ns#"
   xmlns:svg="http://www.w3.org/2000/svg"
   xmlns="http://www.w3.org/2000/svg"
   xmlns:xlink="http://www.w3.org/1999/xlink"
   xmlns:sodipodi="http://sodipodi.sourceforge.net/DTD/sodipodi-0.dtd"
   xmlns:inkscape="http://www.inkscape.org/namespaces/inkscape"
   width="744.09448819"
   height="1052.3622047"
   id="svg3200"
   version="1.1"
   inkscape:version="0.48.2 r9819"
   sodipodi:docname="star_outline.svg"
   inkscape:export-filename="C:\src\starmaze\spriteImages\star_goal.png"
   inkscape:export-xdpi="11.259619"
   inkscape:export-ydpi="11.259619">
  <defs
     id="defs3202">
    <linearGradient
       inkscape:collect="always"
       id="linearGradient3315">
      <stop
         style="stop-color:#ffeeaa;stop-opacity:1;"
         offset="0"
         id="stop3317" />
      <stop
         style="stop-color:#ffeeaa;stop-opacity:0;"
         offset="1"
         id="stop3319" />
    </linearGradient>
    <linearGradient
       inkscape:collect="always"
       xlink:href="#linearGradient3315"
       id="linearGradient3321"
       x1="-134.28571"
       y1="-130.49498"
       x2="414.28571"
       y2="331.64792"
       gradientUnits="userSpaceOnUse" />
    <linearGradient
       inkscape:collect="always"
       xlink:href="#linearGradient3315"
       id="linearGradient3323"
       x1="4.4858451"
       y1="463.00018"
       x2="400.53787"
       y2="806.95502"
       gradientUnits="userSpaceOnUse" />
    <linearGradient
       inkscape:collect="always"
       xlink:href="#linearGradient3315"
       id="linearGradient3325"
       x1="40.000004"
       y1="540.93359"
       x2="588.57141"
       y2="1003.0765"
       gradientUnits="userSpaceOnUse" />
    <linearGradient
       inkscape:collect="always"
       xlink:href="#linearGradient3315"
       id="linearGradient3327"
       x1="40.000004"
       y1="540.93359"
       x2="588.57141"
       y2="1003.0765"
       gradientUnits="userSpaceOnUse" />
  </defs>
  <sodipodi:namedview
     id="base"
     pagecolor="#ffffff"
     bordercolor="#666666"
     borderopacity="1.0"
     inkscape:pageopacity="0.0"
     inkscape:pageshadow="2"
     inkscape:zoom="1.4"
     inkscape:cx="333.93784"
     inkscape:cy="213.43421"
     inkscape:document-units="px"
     inkscape:current-layer="layer1"
     showgrid="false"
     inkscape:window-width="874"
     inkscape:window-height="697"
     inkscape:window-x="1149"
     inkscape:window-y="125"
     inkscape:window-maximized="0" />
  <metadata
     id="metadata3205">
    <rdf:RDF>
      <cc:Work
         rdf:about="">
        <dc:format>image/svg+xml</dc:format>
        <dc:type
           rdf:resource="http://purl.org/dc/dcmitype/StillImage" />
        <dc:title></dc:title>
      </cc:Work>
    </rdf:RDF>
  </metadata>
  <g
     inkscape:label="Layer 1"
     inkscape:groupmode="layer"
     id="layer1">
    <path
       sodipodi:type="star"
       style="fill:url(#linearGradient3321);fill-opacity:1"
       id="path3208"
       sodipodi:sides="5"
       sodipodi:cx="194.28571"
       sodipodi:cy="158.07648"
       sodipodi:r1="196.62457"
       sodipodi:r2="98.312286"
       sodipodi:arg1="0.95054684"
       sodipodi:arg2="1.5788654"
       inkscape:flatsided="false"
       inkscape:rounded="0"
       inkscape:randomized="0"
       d="M 308.57142,318.07647 193.49243,256.38556 77.432894,316.21137 100.54307,187.7012 7.7809846,95.809217 137.14285,78.076477 l 58.72941,-116.618172 56.83985,117.550729 129.05886,19.81799 -94.2329,90.383086 z"
       inkscape:transform-center-x="-0.49027255"
       inkscape:transform-center-y="-18.309088"
       transform="translate(174.28571,671.42857)" />
    <path
       sodipodi:type="star"
       style="fill:url(#linearGradient3323);fill-opacity:1"
       id="path3251"
       sodipodi:sides="5"
       sodipodi:cx="240.71429"
       sodipodi:cy="676.64789"
       sodipodi:r1="114.11818"
       sodipodi:r2="57.059093"
       sodipodi:arg1="-0.29205631"
       sodipodi:arg2="0.33626222"
       inkscape:flatsided="false"
       inkscape:rounded="0"
       inkscape:randomized="0"
       d="m 350.00001,643.79075 -55.42224,51.68441 11.15667,74.9562 -66.28122,-36.73832 -67.83998,33.77336 14.45819,-74.38994 -53.08408,-54.08312 75.21687,-9.23719 35.03222,-67.19857 32.02838,68.68105 z"
       inkscape:transform-center-x="-1.079543"
       inkscape:transform-center-y="-13.642291"
       transform="matrix(1.3850994,0,0,1.3436151,33.786663,-81.160433)" />
    <path
       style="fill:url(#linearGradient3325);fill-opacity:1"
       d="m 410.48139,928.54249 -45.02368,-24.25232 -46.4049,22.42337 c -25.52269,12.33285 -46.50543,22.15592 -46.62831,21.82907 -0.12288,-0.32687 4.19092,-22.66746 9.58622,-49.64577 l 9.80963,-49.05147 -36.19336,-35.6962 c -19.90635,-19.63291 -36.19336,-35.91191 -36.19336,-36.17554 0,-0.26363 23.00717,-3.206 51.12704,-6.53859 28.11987,-3.33259 51.36424,-6.22348 51.65416,-6.42418 0.28991,-0.20072 11.2666,-20.365 24.39265,-44.80952 13.12606,-24.44452 24.07836,-44.21238 24.33848,-43.92857 0.2601,0.28381 10.21636,20.82591 22.12502,45.64912 12.80543,26.69252 22.10369,45.24875 22.75737,45.41615 0.60791,0.15566 23.68719,3.94825 51.2873,8.42796 27.60011,4.47971 50.10011,8.37046 50,8.64611 -0.10011,0.27564 -16.25345,15.01798 -35.89631,32.76076 -19.64285,17.74277 -36.6202,33.13937 -37.72745,34.21466 l -2.01317,1.95506 7.54889,49.0282 c 4.15188,26.9655 7.54888,49.35697 7.54888,49.7588 0,0.40185 -0.24108,0.71591 -0.53572,0.69792 -0.29464,-0.018 -20.79636,-10.94624 -45.55938,-24.28502 l 0,0 z"
       id="path3253"
       inkscape:connector-curvature="0" />
    <path
       style="fill:url(#linearGradient3327);fill-opacity:1"
       d="m 425.20471,958.15338 c -31.16385,-16.70319 -57.20922,-30.27192 -57.87861,-30.15273 -0.66939,0.11919 -26.68678,13.34718 -57.81642,29.39553 -31.12965,16.04835 -56.72223,29.05596 -56.8724,28.90578 -0.15017,-0.15017 4.8782,-28.86992 11.17415,-63.82167 l 11.44719,-63.54865 -46.232,-45.72714 -46.232,-45.72714 64.17941,-8.78499 c 35.29868,-4.83174 64.35496,-8.90071 64.56951,-9.04214 0.21455,-0.14144 13.40795,-26.14722 29.31866,-57.79062 15.91071,-31.64339 29.08929,-57.53395 29.28571,-57.53455 0.19643,-6.1e-4 12.89286,26.04656 28.21429,57.88258 19.8803,41.30881 28.26621,58.0408 29.28571,58.43237 0.78572,0.30177 29.63393,4.85889 64.10715,10.12694 34.47321,5.26804 62.67857,9.78589 62.67857,10.03967 0,0.25377 -20.89286,20.48829 -46.42857,44.9656 -25.53572,24.4773 -46.42857,44.74214 -46.42857,45.03299 0,0.29083 4.6566,29.05487 10.34802,63.92007 5.6914,34.8652 10.2566,63.48268 10.14489,63.59441 -0.11172,0.11171 -25.70083,-13.46313 -56.86469,-30.16631 z m 24.53987,-55.05324 -7.65909,-49.77852 2.42407,-2.1493 c 1.33324,-1.18212 18.6011,-16.77843 38.37303,-34.65847 28.26587,-25.56124 35.66982,-32.60661 34.64286,-32.96509 -0.71836,-0.25075 -23.92173,-4.11839 -51.56304,-8.59476 l -50.25693,-8.13884 -5.18987,-10.37033 c -2.85443,-5.70368 -12.81946,-26.28104 -22.14452,-45.72747 -9.32505,-19.44643 -17.1598,-35.58225 -17.41056,-35.85737 -0.35432,-0.38875 -32.45257,58.46138 -46.45562,85.17347 l -2.44982,4.67325 -50.41787,5.92926 c -27.72983,3.26109 -51.17189,6.15054 -52.09345,6.42099 -1.50811,0.44258 1.9871,4.12426 34.97014,36.83575 l 36.64573,36.34402 -9.89707,49.53958 c -5.44338,27.24678 -9.72828,49.70837 -9.52201,49.91465 0.20628,0.20628 21.37088,-9.76782 47.03243,-22.16466 l 46.65737,-22.53971 45.75163,24.59446 c 25.1634,13.52696 45.8574,24.30268 45.98666,23.94604 0.12926,-0.35663 -3.21157,-23.04876 -7.42407,-50.42695 l 0,0 z"
       id="path3255"
       inkscape:connector-curvature="0" />
  </g>
</svg>
